<!-- Generated by IcoMoon.io -->
<svg version="1.1" xmlns="http://www.w3.org/2000/svg" width="32" height="32" viewBox="0 0 32 32">
<path d="M14.925 14.965h1.066v4.798h-1.066zM19.19 17.097h1.066v2.665h-1.066zM10.661 18.696h1.066v1.066h-1.066zM7.463 18.163h1.066v1.599h-1.066z"></path>
<path d="M1.599 28.291h25.587c0.883-0.001 1.598-0.716 1.599-1.599v-2.132c-0.001-0.883-0.716-1.598-1.599-1.599h-0.533v-13.293l3.028-2.868c0.208 0.105 0.452 0.166 0.712 0.166 0.888 0 1.608-0.72 1.608-1.608s-0.72-1.608-1.608-1.608c-0.888 0-1.608 0.72-1.608 1.608 0 0.246 0.055 0.48 0.155 0.689l-0.004-0.010-2.281 2.163v-1.23c-0.001-0.883-0.716-1.598-1.599-1.599h-21.322c-0.883 0.001-1.598 0.716-1.599 1.599v15.992h-0.533c-0.883 0.001-1.598 0.716-1.599 1.599v2.132c0.001 0.883 0.716 1.598 1.599 1.599h0zM30.384 4.837c0.295 0 0.534 0.239 0.534 0.534s-0.239 0.534-0.534 0.534v0c-0.295 0-0.534-0.239-0.534-0.534s0.239-0.534 0.534-0.534v0zM3.198 6.969c0-0.294 0.239-0.533 0.533-0.533h21.322c0.294 0 0.533 0.239 0.533 0.533v2.239l-1.066 1.013v-2.186c0-0.294-0.239-0.533-0.533-0.533v0h-19.19c-0.294 0-0.533 0.239-0.533 0.533v0 13.326c0 0.294 0.239 0.533 0.533 0.533h19.19c0.294 0 0.533-0.239 0.533-0.533v0-9.674l1.066-1.010v12.284h-22.388zM7.996 13.899c-0 0-0.001 0-0.002 0-0.883 0-1.598 0.715-1.598 1.598s0.715 1.598 1.598 1.598c0.431 0 0.822-0.17 1.109-0.447l-0.001 0 1.853 0.93c0.069 0.036 0.151 0.057 0.238 0.057 0.158 0 0.3-0.069 0.397-0.179l3.94-4.432 3.872 2.901c0.088 0.067 0.199 0.108 0.32 0.108 0.142 0 0.271-0.056 0.366-0.147l-0 0 3.365-3.188v8.131h-18.124v-12.26h18.124v2.66l-3.771 3.572-3.904-2.927c-0.088-0.067-0.199-0.107-0.32-0.107-0.158 0-0.3 0.069-0.398 0.178l-0 0.001-3.993 4.493-1.493-0.746q0.017-0.096 0.020-0.193c-0.001-0.883-0.716-1.598-1.599-1.599h-0zM8.529 15.498c0 0.295-0.239 0.533-0.534 0.533s-0.534-0.239-0.534-0.534v0c0-0.295 0.239-0.534 0.534-0.534s0.534 0.239 0.534 0.534v0zM11.727 24.027h5.331v0.533c0 0.294-0.239 0.533-0.533 0.533v0h-4.264c-0.294 0-0.533-0.239-0.533-0.533v0zM1.066 24.56c0-0.294 0.239-0.533 0.533-0.533h9.062v0.533c0.001 0.883 0.716 1.598 1.599 1.599h4.264c0.883-0.001 1.598-0.716 1.599-1.599v-0.533h9.062c0.294 0 0.533 0.239 0.533 0.533v2.132c0 0.294-0.239 0.533-0.533 0.533v0h-25.587c-0.294 0-0.533-0.239-0.533-0.533v0z"></path>
</svg>
