<!-- Generated by IcoMoon.io -->
<svg version="1.1" xmlns="http://www.w3.org/2000/svg" width="16" height="16" viewBox="0 0 16 16">
    <path
        d="M32 6.078c-1.19 0.522-2.458 0.868-3.78 1.036 1.36-0.816 2.382-2.078 2.873-3.58l0.013-0.046c-1.197 0.723-2.591 1.274-4.076 1.574l-0.084 0.014c-1.202-1.279-2.904-2.076-4.792-2.076h-0c-3.632 0-6.556 2.948-6.556 6.562 0 0.52 0.044 1.020 0.152 1.496-5.454-0.266-10.28-2.88-13.522-6.862-0.563 0.95-0.897 2.094-0.898 3.316v0c0.002 2.263 1.148 4.257 2.891 5.437l0.023 0.015c-1.092-0.031-2.109-0.327-2.997-0.825l0.033 0.017v0.072c0 3.188 2.274 5.836 5.256 6.446-0.503 0.137-1.080 0.216-1.675 0.216-0.016 0-0.031-0-0.047-0h0.002c-0.031 0.001-0.067 0.001-0.103 0.001-0.403 0-0.796-0.041-1.176-0.119l0.037 0.006c0.85 2.598 3.262 4.508 6.13 4.57-2.214 1.744-5.044 2.798-8.12 2.798-0.005 0-0.010 0-0.015 0h0.001c-0.538 0-1.054-0.024-1.57-0.090 2.826 1.846 6.287 2.944 10.004 2.944 0.021 0 0.042-0 0.063-0h-0.003c12.072 0 18.672-10 18.672-18.668q-0.002-0.433-0.024-0.848c1.299-0.937 2.391-2.066 3.258-3.359l0.030-0.047z">
    </path>
</svg>